<?xml version="1.0" encoding="iso-8859-1"?>
<!-- Generator: Adobe Illustrator 16.0.4, SVG Export Plug-In . SVG Version: 6.00 Build 0)  -->
<!DOCTYPE svg PUBLIC "-//W3C//DTD SVG 1.1//EN" "http://www.w3.org/Graphics/SVG/1.1/DTD/svg11.dtd">
<svg version="1.1" id="Capa_1" xmlns="http://www.w3.org/2000/svg" xmlns:xlink="http://www.w3.org/1999/xlink" x="0px" y="0px"
	 width="43.54px" height="47.77px" viewBox="0 0 43.54 47.77" style="enable-background:new 0 0 43.54 47.77;" xml:space="preserve"
	>
<g id="Notebook">
	<g>
		<g>
			<path d="M4.746,15.184c-0.551,0-0.998-0.445-1-0.996L3.73,9.938C3.729,9.385,4.174,8.936,4.727,8.934c0.001,0,0.003,0,0.004,0
				c0.551,0,0.998,0.445,1,0.996l0.016,4.25c0.002,0.553-0.444,1.002-0.996,1.004C4.749,15.184,4.747,15.184,4.746,15.184z"/>
			<path d="M4.73,23.082c-0.552,0-1-0.448-1-1v-4.4c0-0.552,0.448-1,1-1s1,0.448,1,1v4.4C5.73,22.634,5.283,23.082,4.73,23.082z"/>
			<path d="M4.73,31.134c-0.552,0-1-0.448-1-1v-4.197c0-0.552,0.448-1,1-1s1,0.448,1,1v4.197C5.73,30.686,5.283,31.134,4.73,31.134z
				"/>
			<path d="M4.73,39.063c-0.552,0-1-0.448-1-1v-4.167c0-0.552,0.448-1,1-1s1,0.448,1,1v4.167C5.73,38.616,5.283,39.063,4.73,39.063z
				"/>
			<path d="M35.923,47.77H11.348c-3.431,0-6.455-2.309-7.353-5.616c-0.145-0.533,0.17-1.083,0.703-1.227
				c0.535-0.143,1.083,0.17,1.227,0.703c0.663,2.438,2.892,4.14,5.423,4.14h24.575c3.097,0,5.617-2.52,5.617-5.616V7.616
				C41.54,4.52,39.02,2,35.923,2H11.348C8.519,2,6.239,3.846,5.804,6.49c-0.09,0.544-0.601,0.909-1.149,0.824
				C4.11,7.224,3.741,6.71,3.831,6.165C4.428,2.535,7.519,0,11.348,0h24.575c4.2,0,7.617,3.417,7.617,7.616v32.538
				C43.54,44.354,40.123,47.77,35.923,47.77z"/>
		</g>
		<g>
			<path d="M7.218,10.373H2.242C1.006,10.373,0,9.367,0,8.13c0-1.236,1.006-2.242,2.242-2.242h4.976
				c1.236,0,2.242,1.006,2.242,2.242C9.46,9.367,8.454,10.373,7.218,10.373z M2.242,7.388C1.833,7.388,1.5,7.721,1.5,8.13
				c0,0.41,0.333,0.743,0.742,0.743h4.976c0.409,0,0.742-0.333,0.742-0.743c0-0.409-0.333-0.742-0.742-0.742H2.242z"/>
			<path d="M7.218,18.167H2.242C1.006,18.167,0,17.162,0,15.925c0-1.236,1.006-2.242,2.242-2.242h4.976
				c1.236,0,2.242,1.006,2.242,2.242C9.46,17.162,8.454,18.167,7.218,18.167z M2.242,15.183c-0.409,0-0.742,0.333-0.742,0.742
				c0,0.41,0.333,0.743,0.742,0.743h4.976c0.409,0,0.742-0.333,0.742-0.743c0-0.409-0.333-0.742-0.742-0.742H2.242z"/>
			<path d="M7.218,26.292H2.242C1.006,26.292,0,25.287,0,24.051c0-1.237,1.006-2.243,2.242-2.243h4.976
				c1.236,0,2.242,1.006,2.242,2.243C9.46,25.287,8.454,26.292,7.218,26.292z M2.242,23.308c-0.409,0-0.742,0.333-0.742,0.743
				c0,0.409,0.333,0.742,0.742,0.742h4.976c0.409,0,0.742-0.333,0.742-0.742c0-0.41-0.333-0.743-0.742-0.743H2.242z"/>
			<path d="M7.218,34.252H2.242C1.006,34.252,0,33.247,0,32.01c0-1.237,1.006-2.243,2.242-2.243h4.976
				c1.236,0,2.242,1.006,2.242,2.243C9.46,33.247,8.454,34.252,7.218,34.252z M2.242,31.268c-0.409,0-0.742,0.333-0.742,0.743
				c0,0.409,0.333,0.742,0.742,0.742h4.976c0.409,0,0.742-0.333,0.742-0.742c0-0.41-0.333-0.743-0.742-0.743H2.242z"/>
			<path d="M7.218,42.212H2.242C1.006,42.212,0,41.207,0,39.97c0-1.237,1.006-2.243,2.242-2.243h4.976
				c1.236,0,2.242,1.006,2.242,2.243C9.46,41.207,8.454,42.212,7.218,42.212z M2.242,39.228c-0.409,0-0.742,0.333-0.742,0.743
				c0,0.409,0.333,0.742,0.742,0.742h4.976c0.409,0,0.742-0.333,0.742-0.742c0-0.41-0.333-0.743-0.742-0.743H2.242z"/>
		</g>
	</g>
	<g>
		<g>
			<g>
				<path style="fill:none;stroke:#000000;stroke-width:1.5;stroke-linecap:round;stroke-linejoin:round;stroke-miterlimit:10;" d="
					M30.884,7.307"/>
				<path style="fill:none;stroke:#000000;stroke-width:1.5;stroke-linecap:round;stroke-linejoin:round;stroke-miterlimit:10;" d="
					M34.236,7.799"/>
				<path d="M32.188,12.164c-0.262,0-0.517-0.138-0.654-0.382c-1.245-2.215-1.595-3.377-1.388-4.607
					c0.191-1.128,1.381-2.239,2.775-2.029c0.642,0.093,1.212,0.433,1.602,0.956c0.389,0.522,0.55,1.164,0.456,1.807
					c-0.061,0.41-0.447,0.688-0.851,0.633C33.717,8.48,33.434,8.1,33.494,7.69c0.037-0.247-0.026-0.493-0.175-0.693
					c-0.15-0.201-0.369-0.332-0.618-0.368c-0.494-0.078-1.007,0.384-1.077,0.795c-0.123,0.728,0.035,1.52,1.216,3.622
					c0.203,0.361,0.075,0.818-0.286,1.021C32.439,12.133,32.312,12.164,32.188,12.164z"/>
			</g>
			<g>
				<path d="M32.583,12.5c-0.093,0-0.188-0.018-0.28-0.054c-0.497-0.198-0.695-0.516-0.87-0.853c-0.191-0.368-0.048-0.82,0.32-1.011
					c0.367-0.191,0.821-0.048,1.011,0.32c0.061,0.117,0.084,0.15,0.092,0.158c0.385,0.153,0.573,0.585,0.42,0.97
					C33.16,12.324,32.879,12.5,32.583,12.5z"/>
			</g>
			<g>
				<path style="fill:none;stroke:#000000;stroke-width:1.5;stroke-linecap:round;stroke-linejoin:round;stroke-miterlimit:10;" d="
					M36.936,9.837"/>
				<path style="fill:none;stroke:#000000;stroke-width:1.5;stroke-linecap:round;stroke-linejoin:round;stroke-miterlimit:10;" d="
					M34.23,7.797"/>
				<path d="M33.095,12.542c-0.33,0-0.632-0.219-0.723-0.553c-0.109-0.399,0.126-0.812,0.526-0.921c2.325-0.634,3-1.079,3.433-1.679
					c0.248-0.344,0.208-1.022-0.191-1.323c-0.2-0.151-0.446-0.215-0.695-0.181c-0.247,0.034-0.466,0.163-0.616,0.362
					c-0.249,0.332-0.719,0.397-1.05,0.147c-0.331-0.249-0.396-0.719-0.147-1.05c0.391-0.519,0.962-0.854,1.606-0.944
					c0.645-0.09,1.286,0.076,1.805,0.469c1.128,0.849,1.171,2.472,0.504,3.398c-0.741,1.025-1.774,1.571-4.255,2.248
					C33.227,12.534,33.161,12.542,33.095,12.542z"/>
			</g>
			<g>
				<path d="M32.878,12.566c-0.181,0-0.377-0.034-0.594-0.128c-0.381-0.164-0.556-0.605-0.393-0.986
					c0.164-0.38,0.603-0.557,0.985-0.392c0.009,0.007,0.05,0,0.177-0.04c0.396-0.121,0.816,0.1,0.938,0.496s-0.1,0.816-0.496,0.938
					C33.304,12.514,33.103,12.566,32.878,12.566z"/>
			</g>
		</g>
		<g>
			<g>
				<g>
					<g>
						<path d="M22.852,37.929c-0.414,0-0.75-0.336-0.75-0.75v-2.8c0-0.414,0.336-0.75,0.75-0.75s0.75,0.336,0.75,0.75v2.8
							C23.602,37.593,23.266,37.929,22.852,37.929z"/>
						<path d="M26.31,37.929c-0.414,0-0.75-0.336-0.75-0.75v-2.8c0-0.414,0.336-0.75,0.75-0.75s0.75,0.336,0.75,0.75v2.8
							C27.06,37.593,26.724,37.929,26.31,37.929z"/>
					</g>
					<path d="M24.57,39.667c-1.363,0-2.473-1.109-2.473-2.472c0-0.414,0.336-0.75,0.75-0.75s0.75,0.336,0.75,0.75
						c0,0.536,0.437,0.972,0.973,0.972c0.537,0,0.974-0.436,0.974-0.972c0-0.414,0.336-0.75,0.75-0.75s0.75,0.336,0.75,0.75
						C27.044,38.558,25.934,39.667,24.57,39.667z"/>
				</g>
				<g>
					<g>
						<path d="M16.946,37.99c-0.414,0-0.75-0.336-0.75-0.75v-2.775c0-0.414,0.336-0.75,0.75-0.75s0.75,0.336,0.75,0.75v2.775
							C17.696,37.654,17.36,37.99,16.946,37.99z"/>
						<path d="M20.403,37.99c-0.414,0-0.75-0.336-0.75-0.75v-2.83c0-0.414,0.336-0.75,0.75-0.75s0.75,0.336,0.75,0.75v2.83
							C21.153,37.654,20.817,37.99,20.403,37.99z"/>
						<path d="M16.958,35.143c-0.414,0-0.75-0.336-0.75-0.75c0-0.946,0.526-1.794,1.373-2.215c0.371-0.183,0.821-0.032,1.005,0.338
							c0.184,0.371,0.033,0.821-0.338,1.005c-0.333,0.165-0.54,0.499-0.54,0.871C17.708,34.807,17.372,35.143,16.958,35.143z"/>
					</g>
					<path d="M18.664,39.727c-1.363,0-2.472-1.109-2.472-2.472c0-0.414,0.336-0.75,0.75-0.75s0.75,0.336,0.75,0.75
						c0,0.536,0.436,0.972,0.972,0.972c0.537,0,0.974-0.436,0.974-0.972c0-0.414,0.336-0.75,0.75-0.75s0.75,0.336,0.75,0.75
						C21.138,38.618,20.028,39.727,18.664,39.727z"/>
				</g>
				<g>
					<g>
						<path d="M28.638,37.929c-0.414,0-0.75-0.336-0.75-0.75V34.41c0-0.414,0.336-0.75,0.75-0.75s0.75,0.336,0.75,0.75v2.769
							C29.388,37.593,29.052,37.929,28.638,37.929z"/>
						<path d="M32.093,37.929c-0.414,0-0.75-0.336-0.75-0.75v-2.781c0-0.414,0.336-0.75,0.75-0.75s0.75,0.336,0.75,0.75v2.781
							C32.843,37.593,32.507,37.929,32.093,37.929z"/>
						<path d="M32.093,35.083c-0.414,0-0.75-0.336-0.75-0.75c0-0.374-0.207-0.708-0.54-0.872c-0.372-0.184-0.524-0.633-0.341-1.004
							c0.183-0.372,0.633-0.524,1.004-0.341c0.849,0.419,1.376,1.269,1.376,2.218C32.843,34.747,32.507,35.083,32.093,35.083z"/>
					</g>
					<path d="M30.355,39.667c-1.363,0-2.472-1.109-2.472-2.472c0-0.414,0.336-0.75,0.75-0.75s0.75,0.336,0.75,0.75
						c0,0.536,0.436,0.972,0.972,0.972s0.972-0.436,0.972-0.972c0-0.414,0.336-0.75,0.75-0.75s0.75,0.336,0.75,0.75
						C32.827,38.558,31.718,39.667,30.355,39.667z"/>
				</g>
				<path d="M17.027,33.444c-0.195,0-0.39-0.076-0.537-0.226c-1.943-1.991-4.034-5.557-4.034-8.685c0-5.982,5.64-11.23,12.07-11.23
					c6.429,0,12.068,5.248,12.068,11.23c0,3.115-2.082,6.675-4.016,8.664c-0.288,0.297-0.763,0.305-1.061,0.015
					c-0.297-0.289-0.304-0.764-0.015-1.061c1.785-1.835,3.591-5.042,3.591-7.618c0-5.184-4.938-9.73-10.568-9.73
					c-5.631,0-10.57,4.547-10.57,9.73c0,2.587,1.814,5.8,3.607,7.637c0.29,0.296,0.284,0.771-0.013,1.061
					C17.405,33.374,17.216,33.444,17.027,33.444z"/>
			</g>
			<g>
				<path d="M20.292,28.776c-1.742,0-3.177-1.419-3.2-3.164c-0.015-1.767,1.407-3.218,3.171-3.237c1.777,0,3.21,1.42,3.23,3.166
					c0.009,0.859-0.317,1.667-0.916,2.278c-0.599,0.609-1.398,0.949-2.253,0.957H20.292z M20.298,23.875
					c-0.958,0.01-1.715,0.783-1.707,1.721c0.012,0.925,0.775,1.68,1.7,1.68v0.75l0.018-0.75c0.455-0.004,0.879-0.184,1.196-0.507
					c0.318-0.325,0.492-0.755,0.487-1.211C21.982,24.63,21.222,23.875,20.298,23.875z"/>
				<path d="M28.834,28.776c-1.742,0-3.178-1.419-3.201-3.164c-0.015-1.767,1.407-3.218,3.171-3.237c1.777,0,3.21,1.42,3.23,3.166
					c0.009,0.859-0.317,1.668-0.916,2.279c-0.598,0.609-1.398,0.949-2.252,0.956H28.834z M28.839,23.875
					c-0.958,0.01-1.715,0.783-1.707,1.721c0.012,0.925,0.775,1.68,1.701,1.68v0.75l0.018-0.75c0.455-0.004,0.879-0.184,1.196-0.507
					c0.318-0.325,0.492-0.755,0.487-1.212C30.523,24.63,29.763,23.875,28.839,23.875z"/>
				<path d="M18.265,23.784c-0.257,0-0.507-0.132-0.646-0.369l-0.654-1.11c-0.21-0.357-0.092-0.817,0.265-1.027
					c0.357-0.211,0.817-0.091,1.027,0.265l0.654,1.11c0.21,0.357,0.092,0.817-0.265,1.027
					C18.526,23.751,18.395,23.784,18.265,23.784z"/>
				<path d="M20.273,23.229c-0.411,0-0.746-0.331-0.75-0.742l-0.014-1.282c-0.004-0.414,0.328-0.753,0.742-0.758
					c0.386,0.031,0.753,0.328,0.758,0.742l0.014,1.282c0.004,0.414-0.328,0.753-0.742,0.758
					C20.279,23.229,20.276,23.229,20.273,23.229z"/>
				<path d="M22.323,23.776c-0.125,0-0.251-0.031-0.368-0.097c-0.361-0.204-0.488-0.661-0.285-1.022l0.632-1.12
					c0.204-0.36,0.662-0.486,1.022-0.285c0.361,0.204,0.488,0.661,0.285,1.022l-0.632,1.12
					C22.839,23.639,22.584,23.776,22.323,23.776z"/>
				<path d="M26.86,23.784c-0.256,0-0.506-0.132-0.646-0.369l-0.655-1.11c-0.21-0.357-0.092-0.817,0.265-1.027
					c0.356-0.208,0.816-0.092,1.027,0.265l0.655,1.11c0.21,0.357,0.092,0.817-0.265,1.027C27.121,23.75,26.99,23.784,26.86,23.784z"
					/>
				<path d="M28.866,23.229c-0.411,0-0.746-0.331-0.75-0.743l-0.013-1.282c-0.004-0.414,0.329-0.753,0.743-0.757
					c0.449,0.015,0.753,0.329,0.757,0.743l0.013,1.282c0.004,0.414-0.329,0.753-0.743,0.757
					C28.871,23.229,28.869,23.229,28.866,23.229z"/>
				<path d="M30.917,23.776c-0.125,0-0.251-0.031-0.368-0.097c-0.361-0.204-0.488-0.661-0.285-1.022l0.632-1.12
					c0.204-0.36,0.662-0.486,1.022-0.285c0.361,0.204,0.488,0.661,0.285,1.022l-0.632,1.12
					C31.433,23.639,31.178,23.776,30.917,23.776z"/>
			</g>
			<circle cx="23.339" cy="30.753" r="0.839"/>
			<circle cx="25.958" cy="30.753" r="0.838"/>
		</g>
	</g>
</g>
<g>
</g>
<g>
</g>
<g>
</g>
<g>
</g>
<g>
</g>
<g>
</g>
<g>
</g>
<g>
</g>
<g>
</g>
<g>
</g>
<g>
</g>
<g>
</g>
<g>
</g>
<g>
</g>
<g>
</g>
</svg>
